<svg width="15" height="27" viewBox="0 0 15 27" fill="none" xmlns="http://www.w3.org/2000/svg">
<path d="M0.627735 11.5937L11.6641 0.576775C11.8454 0.394015 12.0611 0.248954 12.2987 0.149961C12.5363 0.0509673 12.7912 0 13.0486 0C13.306 0 13.5608 0.0509673 13.7984 0.149961C14.0361 0.248954 14.2517 0.394015 14.433 0.576775C14.7962 0.942112 15 1.43632 15 1.95145C15 2.46658 14.7962 2.96079 14.433 3.32613L4.78101 13.0756L14.433 22.7276C14.7962 23.0929 15 23.5871 15 24.1022C15 24.6174 14.7962 25.1116 14.433 25.4769C14.2524 25.6612 14.037 25.8077 13.7994 25.9082C13.5618 26.0086 13.3065 26.0608 13.0486 26.0619C12.7906 26.0608 12.5354 26.0086 12.2977 25.9082C12.0601 25.8077 11.8447 25.6612 11.6641 25.4769L0.627735 14.46C0.429811 14.2774 0.271852 14.0558 0.163815 13.8092C0.0557756 13.5625 0 13.2961 0 13.0268C0 12.7576 0.0557756 12.4912 0.163815 12.2445C0.271852 11.9979 0.429811 11.7763 0.627735 11.5937Z" fill="white"/>
</svg>
