<svg width="14" height="12" viewBox="0 0 14 12" fill="none" xmlns="http://www.w3.org/2000/svg">
<path d="M13.1629 1.92313C13.5974 1.56368 13.5974 0.897548 13.1629 0.538095C12.8305 0.263069 12.3495 0.263069 12.0171 0.538095L7.63744 4.16138C7.26756 4.46737 6.73244 4.46737 6.36256 4.16138L1.98292 0.538095C1.65048 0.263069 1.16952 0.263069 0.83708 0.538095C0.402591 0.897548 0.402591 1.56368 0.83708 1.92313L4.65866 5.08472C5.14207 5.48465 5.14207 6.2258 4.65866 6.62573L0.83708 9.78732C0.402592 10.1468 0.402591 10.8129 0.83708 11.1724C1.16952 11.4474 1.65048 11.4474 1.98292 11.1724L6.36256 7.54907C6.73244 7.24307 7.26756 7.24307 7.63744 7.54907L12.0171 11.1724C12.3495 11.4474 12.8305 11.4474 13.1629 11.1724C13.5974 10.8129 13.5974 10.1468 13.1629 9.78732L9.34134 6.62573C8.85793 6.2258 8.85793 5.48465 9.34134 5.08472L13.1629 1.92313Z" fill="#ffffff"/>
</svg>
