<?xml version="1.0" encoding="iso-8859-1"?>
<!-- Uploaded to: SVG Repo, www.svgrepo.com, Generator: SVG Repo Mixer Tools -->
<svg height="800px" width="800px" version="1.1" id="Layer_1" xmlns="http://www.w3.org/2000/svg" xmlns:xlink="http://www.w3.org/1999/xlink" 
	 viewBox="0 0 512.003 512.003" xml:space="preserve">
<path style="fill:#F09F28;" d="M246.63,178.092c0,0,45.898,96.386-64.257,243.259l55.651,29.834
	c69.994-61.962,71.142-206.541,71.142-206.541l5.164-72.863l-31.555-23.523l-32.702,0.574l-14.343,10.901L246.63,178.092z"/>
<path style="fill:#4BAA62;" d="M309.166,244.645c-3.824-78.792-47.045-79.748-47.045-79.748
	c-44.368,3.06-82.043,59.094-82.043,59.094c-38.248-59.667,16.064-90.266,16.064-90.266c-60.433-17.594-107.86,48.958-107.86,48.958
	c-0.765-100.21,103.27-104.8,103.27-104.8C162.484,29.689,64.568,51.873,64.568,51.873s98.681-96.386,201.951,8.414
	c0,0,58.902-64.257,146.108,19.125c0,0-67.317-19.889-107.095,20.654c0,0,123.159,2.295,99.446,103.27
	c0,0-27.73-54.122-88.927-57.946C316.051,145.39,355.638,174.076,309.166,244.645z"/>
<g>
	<circle style="fill:#CC473C;" cx="268.045" cy="49.961" r="31.555"/>
	<circle style="fill:#CC473C;" cx="216.8" cy="99.679" r="31.555"/>
	<circle style="fill:#CC473C;" cx="271.877" cy="95.089" r="31.555"/>
</g>
<path style="fill:#F5C623;" d="M491.228,455.775c-117.614,0-117.614-80.321-235.227-80.321s-117.614,80.321-235.227,80.321v44.751
	h470.454V455.775z"/>
<g>
	<path style="fill:#231F20;" d="M491.228,444.301c-55.262,0-82.405-18.536-111.142-38.162
		c-22.143-15.122-44.852-30.611-79.721-37.885c17.229-52.947,19.821-106.058,20.209-120.116
		c19.728-30.941,26.654-58.659,20.579-82.425c-0.348-1.361-0.73-2.669-1.141-3.93c36.655,12.788,53.913,45.169,54.754,46.785
		c2.194,4.282,6.827,6.73,11.602,6.158c4.776-0.583,8.68-4.084,9.781-8.768c7.134-30.378,2.865-55.926-12.69-75.936
		c-17.274-22.223-44.942-32.532-66.45-37.312c33.111-13.409,71.896-2.433,72.366-2.297c5.079,1.5,10.524-0.67,13.18-5.251
		c2.655-4.583,1.829-10.387-1.999-14.046c-32.975-31.53-66.309-46.97-99.013-45.89c-6.028,0.199-11.658,0.974-16.907,2.122
		c-7.593-12.242-21.151-20.418-36.588-20.418c-12.689,0-24.108,5.524-31.991,14.289C192.752-5.037,152.432-2.67,123.595,5.768
		C83.727,17.435,57.642,42.599,56.55,43.665c-3.672,3.586-4.512,9.173-2.062,13.683s7.601,6.847,12.607,5.717
		c20.795-4.68,72.249-10.48,100.653,7.03c-9.775,2.356-21.612,6.201-33.473,12.459c-26.459,13.962-57.906,42.681-57.468,100.215
		c0.038,4.974,3.276,9.357,8.02,10.855c4.742,1.499,9.912-0.232,12.799-4.282c0.36-0.505,30.956-42.718,71.765-46.768
		c-5.205,6.656-10.012,15.083-12.552,25.298c-4.892,19.66-0.322,40.624,13.579,62.311c2.084,3.251,5.666,5.231,9.526,5.277
		c0.046,0.001,0.092,0.001,0.138,0.001c3.81,0,7.378-1.896,9.512-5.058c0.266-0.394,20.725-30.319,47.429-45.512
		c2.382,6.272,9.299,27.721,7.23,60.832c-1.816,29.071-11.082,72.077-41.729,124.683c-29.831,7.904-50.453,21.971-70.607,35.735
		c-28.737,19.626-55.88,38.162-111.142,38.162c-6.337,0-11.474,5.138-11.474,11.475v44.751c0,6.336,5.137,11.474,11.474,11.474
		h470.454c6.337,0,11.474-5.138,11.474-11.474v-44.751C502.703,449.439,497.566,444.301,491.228,444.301z M322.3,48.166
		c16.434-0.55,33.411,4.438,50.745,14.849c-18.95,0.19-41.322,3.993-60.922,16.88c-1.426-3.764-3.36-7.281-5.727-10.458
		c2.988-5.851,4.683-12.468,4.683-19.478c0-0.174-0.011-0.347-0.014-0.522C314.587,48.758,318.327,48.296,322.3,48.166z
		 M196.716,99.684c0-11.072,9.009-20.08,20.08-20.08c5.115,0,9.775,1.938,13.324,5.099c-0.828,3.33-1.276,6.809-1.276,10.391
		c0,6.1,1.284,11.904,3.582,17.166c-3.684,4.57-9.318,7.504-15.631,7.504C205.725,119.764,196.716,110.757,196.716,99.684z
		 M251.794,95.094c0-11.072,9.009-20.08,20.08-20.08s20.08,9.009,20.08,20.08s-9.009,20.08-20.08,20.08
		S251.794,106.167,251.794,95.094z M268.05,29.88c11.072,0,20.08,9.009,20.08,20.08c0,1.744-0.249,3.425-0.67,5.037
		c-4.836-1.886-10.09-2.933-15.586-2.933c-8.083,0-15.65,2.243-22.117,6.135c-1.142-2.515-1.788-5.301-1.788-8.24
		C247.969,38.888,256.977,29.88,268.05,29.88z M110.136,35.336c6.064-2.828,12.731-5.443,19.905-7.542
		c33.332-9.757,65.41-5.02,95.765,14.01c-0.509,2.643-0.785,5.367-0.785,8.156c0,2.606,0.235,5.158,0.68,7.636
		c-2.876-0.608-5.851-0.942-8.904-0.942c-8.109,0-15.699,2.257-22.18,6.172C174.239,40.002,139.154,34.929,110.136,35.336z
		 M104.899,148.505c13.081-38.039,48.078-51.674,69.572-56.523c-0.454,2.501-0.705,5.073-0.705,7.703
		c0,7.076,1.728,13.753,4.768,19.648C148.318,118.172,122.624,133.476,104.899,148.505z M181.944,202.835
		c-4.108-10.406-5.08-20.188-2.886-29.213c4.692-19.298,22.589-29.826,22.717-29.9c1.245-0.701,2.321-1.613,3.199-2.674
		c3.759,1.076,7.722,1.665,11.822,1.665c11.796,0,22.485-4.783,30.263-12.498c7.018,4.973,15.578,7.908,24.815,7.908
		c17.749,0,33.019-10.802,39.588-26.177c15.192,1.382,54.619,7.314,73.923,32.219c6.141,7.922,9.745,17.317,10.798,28.092
		c-15.806-16.795-41.82-35.97-79.416-38.32c-5.094-0.324-9.789,2.768-11.515,7.574c-1.726,4.807-0.069,10.173,4.067,13.17
		c0.249,0.18,20.046,15.214,6.042,53.386c-14.248-53.067-51.135-54.603-52.986-54.644c-0.085-0.001-0.169-0.002-0.254-0.002
		c-0.263,0-0.527,0.009-0.789,0.026C227.034,155.815,197.41,184.616,181.944,202.835z M267.267,245.264
		c1.935-35.788-5.425-59.656-8.745-68.405c1.215-0.199,2.434-0.355,3.657-0.459c3.354,0.426,32.378,6.044,35.508,68.483
		c-0.085,4.95-1.523,63.969-20.446,119.998c-6.668-0.584-13.725-0.902-21.24-0.902c-8.709,0-16.794,0.431-24.376,1.207
		C257.61,315.392,265.708,274.135,267.267,245.264z M479.754,489.051H32.249v-22.054c54.845-2.459,84.181-22.492,112.611-41.907
		c28.737-19.626,55.88-38.162,111.142-38.162s82.405,18.536,111.142,38.162c28.429,19.416,57.765,39.449,112.611,41.907V489.051z"/>
	<path style="fill:#231F20;" d="M347.969,439.8c-4.363-2.95-9.554-6.406-14.977-9.66c-5.433-3.26-12.482-1.501-15.743,3.933
		c-3.261,5.433-1.5,12.483,3.933,15.744c4.954,2.973,9.821,6.215,13.93,8.993c1.97,1.333,4.205,1.971,6.418,1.971
		c3.681,0,7.298-1.768,9.516-5.046C354.596,450.484,353.218,443.351,347.969,439.8z"/>
	<path style="fill:#231F20;" d="M274.243,410.679c-5.711-0.531-11.849-0.801-18.242-0.801c-6.337,0-11.474,5.138-11.474,11.474
		s5.137,11.474,11.474,11.474c5.687,0,11.108,0.236,16.114,0.702c0.363,0.033,0.721,0.051,1.077,0.051
		c5.857,0,10.857-4.465,11.411-10.412C285.192,416.857,280.553,411.266,274.243,410.679z"/>
</g>
</svg>